# xmcd
#
# Track frame offsets:
#	150
#	19339
#	35890
#	52165
#	66832
#	83859
#	105346
#	120628
#	140567
#	160343
#	184133
#
# Disc length: 2633 seconds
#
# Revision: 0
# Processed by: cddbd v1.5.2PL0 Copyright (c) Steve Scherf et al.
# Submitted via: audiograbber 1.83.01
#
DISCID=9d0a470b
DTITLE=Brad Butcher - Jamestown
DYEAR=2014
DGENRE=Country
TTITLE0=Simple Things
TTITLE1=Stone Cold
TTITLE2=Believer
TTITLE3=Lost Years
TTITLE4=Jamestown
TTITLE5=Always You
TTITLE6=Two Women
TTITLE7=In The Dark
TTITLE8=Coming Home
TTITLE9=Next Train
TTITLE10=Lay Your Head
EXTD=
EXTT0=
EXTT1=
EXTT2=
EXTT3=
EXTT4=
EXTT5=
EXTT6=
EXTT7=
EXTT8=
EXTT9=
EXTT10=
PLAYORDER=
